<?xml version="1.0" encoding="utf-8"?>
<!-- Generator: Adobe Illustrator 21.0.0, SVG Export Plug-In . SVG Version: 6.00 Build 0)  -->
<svg version="1.0" xmlns="http://www.w3.org/2000/svg" xmlns:xlink="http://www.w3.org/1999/xlink" x="0px" y="0px" width="800px"
	 height="523px" viewBox="0 0 800 523" style="enable-background:new 0 0 800 523;" xml:space="preserve">
<style type="text/css">
	.st0{fill-rule:evenodd;clip-rule:evenodd;fill:#FFFFFF;}
	.st1{fill:#FF7A5C;}
	.st2{fill:#4F88B7;}
	.st3{fill:#EF6B8C;}
	.st4{fill:#12B288;}
	.st5{fill:#FFFFFF;}
	.st6{fill:none;stroke:#595959;stroke-width:2;stroke-miterlimit:10;}
	.st7{fill:#8071D1;}
	.st8{fill:#E36A49;}
	.st9{fill:#477BAC;}
	.st10{fill:#C25E77;}
	.st11{fill:#303030;}
	.st12{fill:none;stroke:#303030;stroke-width:1.5;stroke-miterlimit:10;}
	.st13{fill:#F4C3B6;}
	.st14{fill:#730420;}
	.st15{fill:none;stroke:#DEDEDE;stroke-width:2;stroke-miterlimit:10;}
	.st16{fill:#EEA692;stroke:#DEDEDE;stroke-width:2;stroke-miterlimit:10;}
	.st17{fill:none;stroke:#595959;stroke-width:1.5;stroke-miterlimit:10;}
	.st18{fill:none;stroke:#303030;stroke-width:2;stroke-miterlimit:10;}
	.st19{fill:#DEDEDE;}
	.st20{fill:#91B0CD;stroke:#303030;stroke-width:1.3;stroke-miterlimit:10;}
	.st21{fill:#303030;stroke:#595959;stroke-width:3;stroke-miterlimit:10;}
	.st22{fill:none;stroke:#303030;stroke-width:1.3;stroke-miterlimit:10;}
	.st23{fill:none;stroke:#730420;stroke-miterlimit:10;}
	.st24{fill:#ACACAC;stroke:#303030;stroke-miterlimit:10;}
	.st25{fill:none;stroke:#ACACAC;stroke-width:3;stroke-miterlimit:10;}
	.st26{fill:#0E8566;}
	.st27{fill:none;stroke:#000000;stroke-width:1.3;stroke-miterlimit:10;}
	.st28{fill:none;stroke:#303030;stroke-miterlimit:10;}
	.st29{fill:none;stroke:#ACACAC;stroke-width:1.3;stroke-miterlimit:10;}
	.st30{fill:none;stroke:#ACACAC;stroke-miterlimit:10;}
	.st31{fill:#ACACAC;}
	.st32{fill:none;stroke:#A5062D;stroke-width:2;stroke-miterlimit:10;}
	.st33{fill:#A5062D;}
	.st34{fill-rule:evenodd;clip-rule:evenodd;fill:#DEDEDE;}
	.st35{fill-rule:evenodd;clip-rule:evenodd;fill:#477BAC;}
	.st36{fill-rule:evenodd;clip-rule:evenodd;fill:#595959;}
	.st37{fill-rule:evenodd;clip-rule:evenodd;fill:#BF264D;}
	.st38{fill:#355C81;}
	.st39{fill:#91B0CD;}
	.st40{enable-background:new    ;}
	.st41{fill:#FFC226;}
	.st42{fill:#BF921C;}
	.st43{fill:#71D1B8;}
	.st44{fill:none;stroke:#666666;stroke-width:2;stroke-miterlimit:10;}
	.st45{fill:#666666;}
	.st46{fill:#AA5037;}
	.st47{fill-rule:evenodd;clip-rule:evenodd;fill:#843C2D;}
	.st48{fill:none;stroke:#5E9CD3;stroke-miterlimit:10;}
	.st49{fill-rule:evenodd;clip-rule:evenodd;fill:none;stroke:#ACACAC;stroke-miterlimit:10;}
	.st50{fill-rule:evenodd;clip-rule:evenodd;fill:#0E8566;}
	.st51{fill-rule:evenodd;clip-rule:evenodd;fill:#ACACAC;}
	.st52{fill-rule:evenodd;clip-rule:evenodd;fill:#998DDA;}
	.st53{fill:#FCDB92;}
	.st54{fill:#92DDC7;}
	.st55{fill:#D1D1D1;}
	.st56{fill:#B5CADE;}
	.st57{fill-rule:evenodd;clip-rule:evenodd;fill:#FFFFFF;stroke:#E36A49;stroke-miterlimit:10;}
	.st58{fill-rule:evenodd;clip-rule:evenodd;fill:#FFFFFF;stroke:#595959;stroke-miterlimit:10;}
	.st59{fill:#ECF1FA;}
	.st60{fill:none;stroke:#DEDEDE;stroke-width:13;stroke-miterlimit:10;}
	.st61{fill:none;stroke:#595959;stroke-width:3;stroke-miterlimit:10;}
	.st62{fill:#595959;}
	.st63{fill:#ED3725;}
	.st64{font-family:Arial;font-weight:bold;}
	.st65{font-size:17.1329px;}
	.st66{font-size:14px;}
</style>
<g id="Layer_4">
</g>
<g id="Layer_1">
	<rect y="-0.4" class="st0" width="800" height="523.8"/>
	<g>
		<path class="st1" d="M327.3,188.3c35.9-27.7,86.4-27.7,122.2,0.1c3.6,2.8,8.7,2.6,12-0.7l76.7-76.7c3.7-3.7,3.5-9.7-0.4-13.1
			c-41.3-36.5-93.8-56.5-149.4-56.5c-55.5,0-108,19.9-149.3,56.4c-3.9,3.4-4.1,9.4-0.4,13.1l76.7,76.7
			C318.6,190.8,323.7,191.1,327.3,188.3z"/>
		<path class="st2" d="M309.4,328.5c-28.1-36.2-27.8-87.4,0.8-123.3c2.9-3.6,2.7-8.8-0.6-12.1l-76.6-76.6c-3.6-3.6-9.6-3.5-13.1,0.3
			c-37.1,41.4-57.4,94.4-57.4,150.5c0,55.6,20,108.1,56.5,149.4c3.4,3.9,9.4,4,13.1,0.4l76.7-76.7
			C311.9,337.2,312.2,332.1,309.4,328.5z"/>
		<path class="st3" d="M450.6,345.4c-36.2,28.9-88.1,29-124.4,0.1c-3.6-2.8-8.7-2.5-11.9,0.7l-76.6,76.6c-3.7,3.7-3.5,9.6,0.4,13.1
			c41.4,37,94.3,57.3,150.3,57.3c56.1,0,109-20.3,150.5-57.4c3.8-3.4,4-9.4,0.3-13.1l-76.6-76.6
			C459.3,342.9,454.2,342.6,450.6,345.4z"/>
		<path class="st4" d="M466.6,205.3c28.5,35.9,28.7,86.9,0.8,123.1c-2.8,3.6-2.5,8.7,0.7,11.9l76.7,76.7c3.7,3.7,9.7,3.5,13.1-0.4
			c36.4-41.3,56.4-93.7,56.4-149.3c0-56-20.3-108.9-57.3-150.3c-3.4-3.8-9.4-4-13.1-0.4l-76.6,76.6
			C464,196.5,463.7,201.7,466.6,205.3z"/>
	</g>
	<text transform="matrix(1 0 0 1 347.6975 230.5)"><tspan x="0" y="0" class="st64 st65">Questões </tspan><tspan x="-10" y="20.6" class="st64 st65">importantes </tspan><tspan x="-3.3" y="41.1" class="st64 st65">na adoção </tspan><tspan x="-10.5" y="61.7" class="st64 st65">de soluções </tspan><tspan x="-10" y="82.2" class="st64 st65">open-source</tspan></text>
	<text transform="matrix(1 0 0 1 352.6621 118.3341)" class="st5 st64 st66">SUPORTE</text>
	<text transform="matrix(1 0 0 1 181.3485 276.3344)" class="st5 st64 st66">SEGURANÇA</text>
	<text transform="matrix(1 0 0 1 513.1436 253.4303)"><tspan x="0" y="0" class="st5 st64 st66">GARANTIA</tspan><tspan x="-16.3" y="16.4" class="st5 st64 st66">DE EVOLUÇÃO </tspan><tspan x="-15.6" y="32.8" class="st5 st64 st66">DO SOFTWARE</tspan></text>
	<text transform="matrix(1 0 0 1 340.4746 417.2693)"><tspan x="0" y="0" class="st5 st64 st66">QUALIDADE</tspan><tspan x="-18.7" y="16.4" class="st5 st64 st66"> E ESTABILIDADE</tspan><tspan x="-7.8" y="32.8" class="st5 st64 st66"> DO PRODUTO</tspan></text>
</g>
</svg>
